<?xml version="1.0" encoding="utf-8"?>
<!-- Generator: Adobe Illustrator 25.0.0, SVG Export Plug-In . SVG Version: 6.00 Build 0)  -->
<svg version="1.1" id="icon-0" xmlns:svgjs="http://svgjs.dev/svgjs"
	 xmlns="http://www.w3.org/2000/svg" xmlns:xlink="http://www.w3.org/1999/xlink" x="0px" y="0px" viewBox="0 0 273.5 315"
	 style="enable-background:new 0 0 273.5 315;" xml:space="preserve">
<style type="text/css">
	.st0{fill:#398378;}
	.st1{display:none;fill:none;}
</style>
<g transform="matrix(1,0,0,1,-0.606059780366877,0.29338590630280237)">
	<g id="tight-bounds" transform="matrix(1,0,0,1,0.24000032697472307,-0.11642297869158824)">
		<g>
			<g>
				<g>
					<g>
						<g>
							<polygon class="st0" points="92.7,26 1.4,78.8 1.4,119.7 92.7,66.9 184.1,119.7 184.1,78.8 							"/>
						</g>
						<g>
							<polygon class="st0" points="182.5,289.6 91.2,236.8 91.2,195.9 182.5,248.6 273.8,195.9 273.8,236.8 							"/>
						</g>
						<g>
							<polygon class="st0" points="1.4,130.7 92.7,77.9 128.2,98.4 36.8,151.1 36.8,256.6 1.4,236.1 							"/>
						</g>
						<g>
							<polygon class="st0" points="229,52.6 137.7,-0.2 102.3,20.3 193.6,73 193.6,178.5 229,158 							"/>
						</g>
						<g>
							<polygon class="st0" points="46.5,262.7 46.5,157.2 82,136.7 82,242.2 173.3,295 137.9,315.4 							"/>
						</g>
						<g>
							<polygon class="st0" points="273.8,184.9 273.8,79.4 238.4,59 238.4,164.5 147.1,217.2 182.5,237.7 							"/>
						</g>
					</g>
				</g>
			</g>
		</g>
		<rect x="1.4" y="-0.2" class="st1" width="996.7" height="315.6"/>
	</g>
</g>
</svg>
